<?xml version="1.0" encoding="UTF-8" standalone="no"?>
<svg
      version="1.0"
      xmlns="http://www.w3.org/2000/svg"
      viewBox="0 0 1732.000000 526.000000"
      preserveAspectRatio="xMidYMid meet"
    >
      <g
        transform="translate(0.000000,526.000000) scale(0.100000,-0.100000)"
        fill="#000000"
        stroke="none"
      >
        <path
          d="M2134 3737 c-2 -7 -3 -65 -2 -128 l3 -114 180 -6 c99 -3 190 -9 202
    -13 24 -9 63 -79 63 -112 0 -33 -23 -72 -55 -91 -25 -15 -59 -19 -210 -23
    l-180 -5 -3 -141 -3 -142 188 -4 c207 -6 240 -14 268 -68 18 -35 19 -97 3
    -132 -23 -49 -39 -53 -245 -56 -143 -3 -195 -7 -203 -17 -7 -8 -10 -56 -8
    -131 l3 -119 210 -3 c224 -3 312 6 379 40 59 29 123 95 154 158 24 49 27 66
    27 155 -1 88 -4 106 -27 150 -39 75 -131 155 -178 155 -34 0 -22 29 22 51 53
    27 138 117 138 146 0 12 4 24 9 27 14 9 20 117 9 171 -14 67 -32 102 -82 153
    -47 49 -117 86 -194 101 -80 16 -461 15 -468 -2z"
        />
        <path
          d="M3637 3732 c-10 -10 -17 -26 -17 -35 0 -9 -9 -32 -20 -52 -11 -20
    -20 -44 -20 -55 0 -10 -4 -21 -9 -24 -4 -3 -14 -26 -21 -51 -7 -25 -17 -48
    -21 -51 -5 -3 -9 -14 -9 -24 0 -11 -9 -35 -20 -55 -11 -20 -20 -44 -20 -55 0
    -10 -4 -21 -9 -24 -4 -3 -14 -26 -21 -51 -7 -25 -17 -48 -21 -51 -5 -3 -9 -14
    -9 -24 0 -11 -9 -35 -20 -55 -11 -20 -20 -42 -20 -50 0 -8 -9 -30 -20 -50 -11
    -20 -20 -44 -20 -55 0 -10 -4 -21 -9 -24 -4 -3 -14 -26 -21 -51 -7 -25 -17
    -48 -21 -51 -5 -3 -9 -14 -9 -24 0 -11 -9 -35 -20 -55 -11 -20 -20 -44 -20
    -55 0 -10 -4 -21 -9 -24 -4 -3 -14 -26 -21 -51 -7 -25 -17 -48 -21 -51 -5 -3
    -9 -13 -9 -24 0 -10 -10 -36 -21 -58 -37 -69 -32 -72 150 -72 l160 0 15 32 c9
    17 16 39 16 49 0 10 5 21 10 24 6 3 10 17 10 30 0 13 5 27 10 30 6 3 10 16 10
    29 0 12 4 26 9 31 5 6 19 42 31 80 12 39 26 74 31 80 5 5 9 19 9 31 0 13 5 26
    10 29 6 3 10 17 10 30 0 13 5 27 10 30 6 3 10 17 10 30 0 13 5 27 10 30 6 3
    10 17 10 30 0 13 4 26 9 29 4 3 14 26 21 51 7 25 17 48 21 51 5 3 9 16 9 29 0
    13 5 27 10 30 6 3 10 17 10 30 0 13 5 27 10 30 6 3 10 17 10 30 0 13 5 27 10
    30 6 3 10 14 10 24 0 20 22 71 31 71 7 0 19 -26 44 -90 9 -25 22 -56 27 -70
    5 -14 32 -90 58 -170 27 -80 58 -170 70 -200 12 -30 43 -122 70 -203 28 -81
    57 -161 65 -177 l16 -30 165 0 c188 0 174 -10 134 90 -12 30 -35 89 -50 130
    -15 41 -37 99 -49 128 -42 104 -63 158 -71 182 -5 14 -18 49 -29 78 -50 126
    -64 161 -91 232 -15 41 -38 100 -50 130 -21 54 -68 177 -96 254 -20 52 -35 79
    -48 88 -6 4 -81 8 -167 8 -138 0 -158 -2 -172 -18z"
        />
        <path
          d="M4410 3615 l0 -135 185 0 185 0 2 -522 3 -523 145 0 145 0 5 520 5
    520 185 5 185 5 0 130 0 130 -522 3 -523 2 0 -135z"
        />
        <path
          d="M5677 3743 c-13 -12 -8 -238 5 -251 8 -8 64 -12 184 -12 147 0 173
    -2 178 -16 3 -9 6 -245 6 -525 l0 -510 148 3 147 3 5 520 5 520 180 5 180 5 0
    130 0 130 -516 3 c-283 1 -519 -1 -522 -5z"
        />
        <path
          d="M6945 3738 c-3 -7 -4 -303 -3 -658 l3 -645 410 0 410 0 3 119 c2 78
    -1 123 -9 132 -9 11 -61 14 -265 14 l-254 0 -2 523 -3 522 -143 3 c-108 2
    -144 0 -147 -10z"
        />
        <path
          d="M7984 3737 c-2 -7 -3 -67 -2 -133 l3 -119 463 -3 462 -2 0 135 0 135
    -460 0 c-370 0 -462 -3 -466 -13z"
        />
        <path
          d="M9645 3738 c-3 -7 -4 -303 -3 -658 l3 -645 145 0 145 0 3 231 2 231
    208 6 c175 4 215 8 260 25 85 33 137 68 184 124 77 92 103 178 96 312 -6 100
    -45 185 -121 264 -104 107 -175 121 -605 122 -241 0 -314 -3 -317 -12z m666
    -278 c42 -23 69 -73 69 -130 0 -64 -19 -102 -67 -132 -35 -21 -50 -23 -205
    -27 l-168 -3 0 157 0 157 173 -4 c118 -3 180 -9 198 -18z"
        />
        <path
          d="M11166 3698 c-14 -29 -26 -60 -26 -69 0 -10 -4 -20 -9 -23 -4 -3 -14
    -26 -21 -51 -7 -25 -17 -48 -21 -51 -5 -3 -9 -14 -9 -24 0 -11 -9 -35 -20 -55
    -11 -20 -20 -42 -20 -50 0 -8 -9 -30 -20 -50 -11 -20 -20 -44 -20 -55 0 -10
    -4 -21 -9 -24 -4 -3 -14 -26 -21 -51 -7 -25 -17 -48 -21 -51 -5 -3 -9 -14 -9
    -24 0 -11 -9 -35 -20 -55 -11 -20 -20 -44 -20 -55 0 -10 -4 -21 -9 -24 -4 -3
    -14 -26 -21 -51 -7 -25 -17 -48 -21 -51 -5 -3 -9 -14 -9 -24 0 -11 -9 -35 -20
    -55 -11 -20 -20 -42 -20 -50 0 -8 -9 -30 -20 -50 -11 -20 -20 -44 -20 -55 0
    -10 -4 -21 -9 -24 -4 -3 -14 -26 -21 -51 -7 -25 -17 -48 -21 -51 -5 -3 -9 -15
    -9 -28 0 -12 -5 -27 -11 -33 -27 -27 4 -33 160 -33 115 0 161 3 168 13 6 6 18
    37 28 67 10 30 21 59 26 65 5 5 9 19 9 31 0 13 5 26 10 29 6 3 10 17 10 30 0
    13 5 27 10 30 6 3 10 17 10 30 0 13 5 27 10 30 6 3 10 17 10 30 0 13 5 27 10
    30 6 3 10 17 10 30 0 13 5 27 10 30 6 3 10 17 10 30 0 13 4 26 9 29 4 3 14
    26 21 51 7 25 17 48 21 51 5 3 9 16 9 29 0 13 5 27 10 30 6 3 10 17 10 30 0
    13 5 27 10 30 6 3 10 17 10 30 0 13 5 27 10 30 6 3 10 16 10 29 0 12 4 26 9
    32 5 5 19 41 31 79 12 39 26 74 31 79 5 6 9 20 9 33 0 24 7 28 25 15 6 -4 27
    -56 47 -117 20 -60 46 -135 58 -165 12 -30 43 -120 70 -200 27 -80 58 -170
    70 -200 12 -30 35 -95 51 -145 16 -49 35 -93 42 -97 7 -4 83 -8 170 -8 l159 0
    -8 32 c-3 18 -15 51 -24 73 -10 22 -25 59 -34 83 -37 99 -49 129 -66 172 -11
    25 -33 83 -50 130 -18 47 -40 105 -50 130 -10 25 -33 83 -50 130 -18 47 -40
    106 -51 133 -51 126 -72 180 -106 272 -8 22 -23 60 -33 85 -10 25 -21 53 -24
    63 -5 15 -22 17 -175 17 l-169 0 -26 -52z"
        />
        <path
          d="M12265 3738 c-3 -7 -4 -303 -3 -658 l3 -645 285 -3 c359 -3 428 6
    568 77 165 83 293 249 336 435 15 62 18 101 13 189 -6 120 -18 162 -73 268
    -36 68 -156 209 -178 209 -7 0 -21 9 -31 20 -10 11 -23 20 -30 20 -7 0 -20 9
    -30 20 -10 11 -28 20 -41 20 -13 0 -26 5 -29 10 -3 6 -16 10 -29 10 -12 0 -26
    4 -32 9 -21 19 -195 31 -452 31 -209 0 -274 -3 -277 -12z m597 -288 c151 -24
    251 -108 297 -249 22 -68 29 -185 11 -196 -5 -3 -10 -14 -10 -24 0 -26 -44
    -109 -77 -143 -78 -82 -147 -107 -319 -115 -72 -3 -147 -3 -167 1 l-37 7 0
    359 c0 333 1 359 18 363 32 9 227 7 284 -3z"
        />
        <path d="M13690 3615 l0 -135 463 2 462 3 0 130 0 130 -462 3 -463 2 0 -135z" />
        <path
          d="M14835 3738 c-3 -7 -4 -303 -3 -658 l3 -645 410 0 410 0 0 130 0 130
    -255 3 c-188 2 -256 6 -262 15 -4 6 -8 243 -8 525 l0 512 -145 0 c-107 0 -147
    -3 -150 -12z"
        />
        <path
          d="M7984 3207 c-2 -7 -3 -67 -2 -133 l3 -119 463 -3 462 -2 0 135 0 135
    -460 0 c-370 0 -462 -3 -466 -13z"
        />
        <path d="M13690 3085 l0 -135 463 2 462 3 0 130 0 130 -462 3 -463 2 0 -135z" />
        <path
          d="M7984 2687 c-2 -7 -3 -67 -2 -133 l3 -119 463 -3 462 -2 0 135 0 135
    -460 0 c-370 0 -462 -3 -466 -13z"
        />
        <path d="M13690 2565 l0 -135 463 2 462 3 0 130 0 130 -462 3 -463 2 0 -135z" />
        <path
          d="M9866 1743 c-2 -10 -10 -61 -16 -113 -6 -52 -15 -126 -20 -165 -24
    -179 -32 -265 -27 -280 7 -16 62 -21 71 -7 3 5 10 51 17 103 12 100 40 176 75
    202 11 8 37 19 57 22 35 7 36 6 42 -27 4 -19 2 -86 -5 -149 -6 -63 -12 -123
    -13 -134 -2 -17 4 -20 38 -20 45 0 41 -12 65 201 11 96 10 114 -3 141 -9 16
    -22 35 -31 42 -26 22 -91 16 -140 -13 -27 -15 -47 -22 -51 -16 -3 5 -2 36 4
    67 6 32 12 82 15 111 l5 52 -39 0 c-28 0 -40 -5 -44 -17z"
        />
        <path
          d="M15461 1742 c-5 -10 -13 -53 -17 -95 -7 -79 -23 -109 -46 -90 -42 33
    -119 16 -176 -40 -70 -67 -103 -207 -66 -280 40 -79 101 -88 182 -27 29 22 54
    40 57 40 2 0 5 -17 7 -37 3 -33 7 -38 31 -41 16 -2 29 2 32 10 8 24 73 563 68
    571 -9 15 -62 7 -72 -11z m-53 -244 c40 -40 -23 -220 -89 -253 -40 -21 -56
    -19 -75 10 -13 20 -16 40 -11 93 9 110 48 161 123 162 22 0 45 -5 52 -12z"
        />
        <path
          d="M1720 1741 c-64 -13 -180 -88 -180 -115 0 -7 -9 -21 -20 -31 -11 -10
    -20 -28 -20 -40 0 -11 -5 -26 -11 -32 -6 -6 -11 -50 -11 -100 -1 -81 2 -95 28
    -143 41 -77 100 -110 195 -110 62 0 140 30 169 65 11 14 10 19 -7 37 l-21 21
    -32 -23 c-25 -18 -46 -23 -96 -23 -59 -1 -67 2 -95 30 -44 43 -63 127 -47 208
    6 33 19 69 29 81 11 11 19 24 19 28 0 15 54 51 95 63 58 18 88 16 135 -9 l42
    -23 18 23 c25 30 16 49 -34 71 -51 23 -110 31 -156 22z"
        />
        <path
          d="M9077 1732 c-22 -25 -21 -48 3 -72 19 -19 22 -19 50 -5 35 18 40 53
    12 78 -24 22 -45 21 -65 -1z"
        />
        <path
          d="M12995 1738 c-55 -30 -95 -89 -95 -139 0 -23 -5 -28 -27 -31 -36 -4
    -46 -46 -14 -55 27 -7 27 -22 0 -224 -21 -166 -22 -210 -2 -216 7 -3 23 7 36
    21 26 27 36 77 57 271 17 151 14 143 63 147 37 3 42 6 42 28 0 22 -5 25 -37
    28 -37 3 -38 4 -38 42 0 31 6 43 29 59 16 12 35 21 43 21 19 0 38 21 38 42 0
    14 -8 18 -37 18 -21 0 -47 -6 -58 -12z"
        />
        <path
          d="M13737 1732 c-22 -24 -21 -45 1 -65 30 -27 71 -22 83 10 22 60 -42
    102 -84 55z"
        />
        <path
          d="M4870 1714 c-6 -14 -10 -41 -10 -59 0 -19 -5 -65 -10 -102 -20 -131
    -47 -368 -43 -375 2 -5 67 -8 144 -8 l139 0 10 26 c20 52 18 54 -89 54 -70 0
    -100 4 -103 13 -5 12 20 237 42 384 6 40 8 77 5 83 -3 5 -22 10 -41 10 -28 0
    -36 -5 -44 -26z"
        />
        <path
          d="M3751 1687 c-6 -8 -17 -38 -24 -66 -10 -42 -16 -51 -34 -51 -25 0
    -56 -27 -50 -44 2 -6 13 -12 24 -14 30 -4 31 -15 17 -122 -18 -136 -17 -163 7
    -194 16 -21 29 -26 63 -26 51 0 98 20 91 38 -3 8 -5 18 -5 24 0 6 -12 8 -29 5
    -56 -12 -64 24 -41 191 l12 82 44 0 c37 0 46 4 53 23 12 31 6 37 -44 37 l-45
    0 3 62 c2 50 -1 63 -14 66 -9 1 -21 -4 -28 -11z"
        />
        <path
          d="M9461 1681 c-6 -11 -15 -37 -19 -58 -6 -30 -15 -41 -39 -52 -49 -22
    -56 -61 -11 -61 19 0 20 -4 15 -52 -4 -29 -9 -93 -13 -143 -6 -83 -4 -92 16
    -117 18 -24 29 -28 69 -28 34 0 53 5 65 19 23 25 11 54 -20 47 -23 -6 -54 15
    -54 37 0 20 20 179 26 209 5 24 10 27 52 30 43 3 47 5 47 28 0 22 -5 25 -43
    28 l-43 3 3 62 c3 57 1 62 -19 65 -14 2 -26 -4 -32 -17z"
        />
        <path
          d="M2715 1575 c-5 -2 -22 -6 -38 -9 -34 -8 -101 -67 -122 -109 -9 -18
    -19 -61 -22 -97 -5 -55 -2 -73 16 -108 37 -73 108 -98 202 -72 39 11 95 63 85
    79 -10 15 -37 13 -60 -4 -10 -8 -38 -17 -61 -21 -53 -7 -90 14 -99 56 -8 42 2
    60 33 60 38 0 128 26 157 45 14 9 32 31 41 50 29 60 -10 111 -97 128 -14 3
    -29 4 -35 2z m43 -61 c19 -5 23 -12 20 -38 -2 -24 -11 -35 -39 -49 -42 -20
    -110 -27 -116 -11 -5 16 39 77 67 91 28 14 36 15 68 7z"
        />
        <path
          d="M3274 1571 c-101 -25 -183 -112 -202 -214 -14 -75 -5 -118 35 -159
    41 -43 88 -39 138 12 21 22 42 40 46 40 4 0 10 -12 14 -27 4 -16 11 -34 17
    -40 12 -15 44 -17 52 -5 7 12 46 308 46 350 0 18 -6 34 -12 37 -31 9 -106 13
    -134 6z m53 -59 c15 -9 -7 -143 -32 -196 -30 -63 -85 -92 -125 -66 -22 14 -20
    124 3 172 30 64 116 114 154 90z"
        />
        <path
          d="M4245 1573 c-96 -18 -170 -122 -170 -238 0 -106 53 -163 153 -164 56
    -1 76 6 130 46 26 20 31 28 21 39 -15 19 -38 18 -60 -2 -10 -9 -39 -19 -64
    -22 -60 -6 -95 23 -95 78 0 37 1 37 48 43 77 10 120 26 157 59 85 74 4 184
    -120 161z m52 -59 c24 -7 36 -39 23 -64 -15 -29 -121 -59 -148 -42 -23 15 26
    89 68 105 21 7 31 8 57 1z"
        />
        <path
          d="M5495 1575 c-5 -2 -22 -6 -38 -9 -40 -9 -105 -72 -129 -125 -42 -93
    -33 -173 26 -231 49 -47 121 -53 192 -17 64 33 80 50 59 67 -12 10 -24 9 -64
    -9 -64 -27 -92 -27 -125 4 -19 17 -26 34 -26 60 0 32 2 35 31 35 37 0 115 19
    148 36 32 17 61 63 61 97 0 33 -50 87 -80 87 -10 0 -24 2 -32 4 -7 3 -17 3
    -23 1z m50 -71 c39 -39 -12 -88 -100 -95 -50 -5 -58 18 -21 66 34 44 92 58
    121 29z"
        />
        <path
          d="M6075 1575 c-5 -1 -30 -8 -55 -15 -123 -36 -214 -211 -165 -320 37
    -81 106 -94 170 -30 22 21 43 39 47 40 4 0 8 -17 10 -37 3 -36 5 -38 38 -38
    l34 0 24 189 c13 104 20 192 15 196 -9 8 -102 20 -118 15z m27 -129 c-5 -91
    -50 -182 -100 -203 -42 -17 -57 -7 -72 47 -22 83 37 197 114 219 57 17 61 13
    58 -63z"
        />
        <path
          d="M6561 1572 c-36 -6 -91 -46 -108 -79 -8 -15 -15 -50 -15 -76 0 -40 5
    -54 28 -79 28 -29 32 -30 92 -25 l62 5 0 -39 0 -39 -57 0 c-112 0 -179 -36
    -189 -100 -11 -70 69 -119 176 -107 75 9 124 39 149 90 26 53 26 58 1 107 -25
    49 -25 100 -1 144 11 18 23 55 26 81 6 37 13 48 32 56 16 6 23 15 21 27 -3 13
    -18 18 -73 24 -39 4 -81 8 -95 11 -14 2 -36 2 -49 -1z m69 -62 c10 -6 15 -26
    15 -61 0 -41 -4 -54 -24 -70 -63 -51 -106 -30 -106 52 0 41 4 54 24 70 25 20
    67 25 91 9z m-12 -316 c34 -9 30 -57 -7 -83 -57 -41 -161 -23 -161 28 0 44 93
    75 168 55z"
        />
        <path
          d="M7725 1573 c-97 -21 -159 -102 -171 -222 -4 -46 -1 -64 18 -101 29
    -56 68 -78 139 -79 45 -1 64 5 103 29 32 20 46 36 44 48 -5 23 -36 27 -58 7
    -30 -27 -106 -32 -131 -9 -27 24 -39 56 -33 82 4 15 17 21 52 25 77 10 121 26
    157 59 28 24 35 37 35 67 0 54 -30 79 -110 94 -14 2 -34 2 -45 0z m53 -59 c19
    -5 22 -12 20 -37 -4 -37 -38 -63 -93 -71 -56 -8 -69 3 -50 41 29 58 70 81 123
    67z"
        />
        <path
          d="M11246 1572 c-82 -10 -158 -109 -171 -222 -5 -46 -2 -63 17 -100 45
    -86 135 -105 226 -47 91 57 135 188 94 279 -34 75 -79 100 -166 90z m76 -79
    c14 -12 18 -31 18 -83 0 -86 -27 -146 -75 -166 -45 -19 -57 -18 -83 6 -19 18
    -22 32 -22 90 0 38 5 72 10 75 6 3 10 17 10 30 0 51 100 86 142 48z"
        />
        <path
          d="M14796 1572 c-25 -5 -96 -52 -96 -63 0 -23 -20 -5 -28 24 -7 27 -13
    32 -37 32 -29 0 -30 0 -41 -85 -25 -187 -35 -291 -29 -300 3 -6 20 -10 36 -10
    37 0 44 17 54 129 11 124 54 192 132 207 29 6 32 4 41 -28 5 -19 6 -57 2 -84
    -4 -27 -11 -88 -15 -136 l-7 -88 36 0 c19 0 38 5 41 10 6 10 19 116 31 250 5
    57 3 69 -18 100 -23 34 -62 50 -102 42z"
        />
        <path
          d="M15857 1571 c-43 -9 -95 -57 -108 -100 -17 -56 2 -85 82 -124 56 -28
    64 -36 67 -63 2 -17 -3 -35 -10 -41 -24 -19 -74 -22 -102 -7 -36 18 -50 18
    -66 -1 -11 -13 -9 -20 10 -40 19 -21 33 -25 77 -25 61 0 95 15 138 60 23 23
    30 40 30 70 0 48 -19 69 -95 108 -63 32 -76 64 -40 97 18 16 27 17 78 8 55
    -10 82 -5 82 18 0 24 -95 50 -143 40z"
        />
        <path
          d="M2150 1568 c0 -2 -11 -88 -25 -192 -13 -104 -22 -193 -19 -198 3 -4
    19 -8 35 -8 35 0 47 23 56 114 7 74 36 157 63 181 11 10 37 21 58 24 34 6 37
    9 40 44 3 33 1 37 -21 37 -14 0 -41 -15 -63 -35 -21 -19 -41 -35 -45 -35 -4 0
    -9 15 -11 33 -3 28 -7 32 -35 35 -18 2 -33 2 -33 0z"
        />
        <path
          d="M7005 1558 c-8 -27 -20 -177 -20 -255 0 -72 3 -84 24 -107 40 -42 98
    -35 164 20 38 32 45 30 49 -8 3 -29 7 -33 36 -36 17 -2 32 -2 32 0 0 2 11 88
    25 192 13 104 22 193 19 198 -8 13 -74 9 -79 -4 -3 -7 -9 -51 -14 -98 -13
    -136 -64 -220 -133 -220 -48 0 -53 28 -34 177 9 70 16 134 16 141 0 7 -15 12
    -40 12 -24 0 -42 -5 -45 -12z"
        />
        <path
          d="M8277 1563 c-6 -11 56 -365 66 -380 5 -7 21 -13 37 -13 26 0 32 7 59
    64 17 35 31 68 31 72 0 5 11 31 25 58 14 27 25 58 25 68 0 10 4 18 8 18 9 0
    22 -55 43 -179 14 -84 29 -103 73 -99 24 2 32 8 34 27 2 13 12 39 23 58 10 18
    19 40 19 47 0 8 14 40 30 71 17 31 30 63 30 71 0 7 9 29 20 49 27 48 26 75 -2
    75 -13 0 -28 -4 -34 -8 -15 -10 -44 -71 -44 -93 0 -10 -4 -21 -10 -24 -5 -3
    -10 -15 -10 -25 0 -11 -9 -35 -20 -55 -11 -20 -20 -44 -20 -55 0 -27 -17 -25
    -26 2 -3 12 -14 74 -23 137 -16 115 -17 116 -44 119 -16 2 -35 -2 -42 -8 -17
    -14 -45 -68 -45 -86 0 -7 -9 -29 -20 -49 -11 -20 -20 -42 -20 -50 0 -24 -46
    -95 -54 -84 -1 2 -8 62 -15 133 -7 72 -14 134 -17 138 -6 10 -71 11 -77 1z"
        />
        <path
          d="M9055 1548 c-4 -20 -21 -158 -40 -330 l-6 -48 40 0 c46 0 43 -7 61
    160 6 58 15 132 20 165 4 33 6 63 3 68 -2 4 -20 7 -38 7 -28 0 -36 -5 -40 -22z"
        />
        <path
          d="M10550 1558 c1 -15 7 -40 50 -198 46 -165 46 -163 16 -224 -15 -30
    -33 -59 -41 -66 -24 -20 -18 -30 18 -30 26 0 39 7 57 33 24 32 250 474 250
    489 0 5 -15 8 -34 8 -34 0 -35 -1 -96 -125 -34 -69 -66 -125 -71 -125 -5 0
    -11 10 -13 23 -3 12 -16 67 -29 122 l-24 100 -42 3 c-29 2 -41 -1 -41 -10z"
        />
        <path
          d="M11685 1558 c-12 -36 -35 -274 -30 -301 20 -92 114 -115 190 -46 33
    29 48 27 54 -6 5 -24 12 -31 34 -33 16 -2 29 2 32 10 6 16 45 335 45 365 0 20
    -5 23 -39 23 l-40 0 -6 -57 c-16 -142 -37 -214 -72 -245 -25 -22 -60 -31 -89
    -24 -22 6 -24 11 -23 64 0 31 6 100 13 152 7 52 11 98 9 103 -7 12 -73 8 -78
    -5z"
        />
        <path
          d="M12276 1562 c-7 -11 -31 -197 -42 -315 l-6 -78 38 3 39 3 8 60 c23
    185 59 255 131 255 29 0 33 5 37 45 4 26 0 30 -22 33 -20 2 -35 -8 -67 -43
    -24 -25 -44 -45 -47 -45 -2 0 -5 19 -7 43 -3 37 -6 42 -30 45 -14 2 -29 -1
    -32 -6z"
        />
        <path
          d="M13285 1558 c-10 -31 -47 -359 -41 -373 4 -11 16 -15 38 -13 l33 3
    12 90 c7 50 17 98 23 107 5 10 10 26 10 36 0 28 61 82 93 82 15 0 30 6 32 13
    27 74 -15 89 -77 28 -22 -23 -42 -40 -44 -39 -1 2 -6 19 -11 38 -7 28 -15 36
    -36 38 -16 2 -29 -2 -32 -10z"
        />
        <path
          d="M13726 1561 c-9 -14 -48 -328 -44 -358 3 -25 7 -28 38 -28 34 0 35 1
    42 50 4 28 12 93 18 145 5 52 13 119 16 148 l7 52 -36 0 c-20 0 -38 -4 -41 -9z"
        />
        <path
          d="M14140 1551 c-42 -22 -92 -83 -108 -130 -7 -19 -12 -62 -12 -96 0
    -58 3 -65 36 -99 42 -43 70 -56 125 -56 39 0 131 39 144 61 4 6 1 17 -7 25
    -12 13 -20 12 -59 -5 -24 -12 -61 -21 -82 -21 -31 0 -40 5 -57 33 -11 17 -19
    43 -18 56 3 21 11 26 68 38 84 17 112 29 143 61 42 44 44 74 7 116 -30 34 -36
    36 -89 36 -34 -1 -69 -8 -91 -19z m120 -46 c18 -22 4 -63 -28 -78 -15 -8 -46
    -17 -69 -21 -37 -5 -43 -4 -43 12 0 70 101 134 140 87z"
        />
      </g>
    </svg>